<svg width="24" height="24" viewBox="0 0 24 24" xmlns="http://www.w3.org/2000/svg">
  <style>
    .bg { fill: #2563eb; }
    .fg { fill: #fff; }
    @media (prefers-color-scheme: dark) {
      .bg { fill: #1e40af; }
      .fg { fill: #93c5fd; }
    }
  </style>
  <rect class="bg" width="24" height="24" rx="4"/>
  <path class="fg" transform="translate(2,2) scale(0.833)" d="M7 12.25h10v-2H7zm0-3.5h10v-2H7zM3 21V3h18v18zm2-2h14v-3h-3q-.75.95-1.787 1.475T12 18t-2.212-.525T8 16H5zm7-3q.95 0 1.725-.55T14.8 14H19V5H5v9h4.2q.3.9 1.075 1.45T12 16m-7 3h14z"/>
</svg>
